<svg width="16" height="16" viewBox="0 0 16 16" fill="none" xmlns="http://www.w3.org/2000/svg">
<path fill-rule="evenodd" clip-rule="evenodd" d="M0.675499 2.26775C0.561885 2.40273 0.499715 2.57357 0.500001 2.75V11.75C0.500001 12.3467 0.737051 12.919 1.159 13.341C1.58096 13.7629 2.15325 14 2.74998 14H13.2499C13.8466 14 14.4189 13.7629 14.8408 13.341C15.2628 12.919 15.4998 12.3467 15.4998 11.75V2.7575C15.5006 2.64574 15.4764 2.53522 15.4292 2.43392C15.382 2.33262 15.3129 2.24307 15.2268 2.17175C15.0935 2.0613 14.926 2.00059 14.7528 2H1.24999C1.14047 1.99983 1.03225 2.02373 0.932973 2.06999C0.833701 2.11626 0.745805 2.18377 0.675499 2.26775ZM1.99998 4.5605V11.75C1.99998 11.9489 2.079 12.1397 2.21965 12.2803C2.3603 12.421 2.55107 12.5 2.74998 12.5H13.2499C13.4488 12.5 13.6395 12.421 13.7802 12.2803C13.9208 12.1397 13.9998 11.9489 13.9998 11.75V4.5605L8.53016 10.0302C8.38952 10.1709 8.19879 10.2498 7.99992 10.2498C7.80105 10.2498 7.61032 10.1709 7.46967 10.0302L1.99998 4.5605Z" fill="#314321"/>
</svg>
