<svg width="16" height="16" viewBox="0 0 16 16" fill="none" xmlns="http://www.w3.org/2000/svg">
<path d="M7.99947 2C4.60059 2 1.84766 4.75291 1.84766 8.15176C1.84766 10.8739 3.60861 13.1731 6.05396 13.9882C6.36155 14.0421 6.4769 13.8575 6.4769 13.696C6.4769 13.5499 6.46921 13.0655 6.46921 12.5503C4.92357 12.8348 4.5237 12.1735 4.40066 11.8274C4.33145 11.6506 4.03155 11.1046 3.7701 10.9585C3.55479 10.8432 3.24719 10.5586 3.76241 10.551C4.24687 10.5433 4.5929 10.997 4.70825 11.1815C5.26192 12.112 6.14624 11.8505 6.49997 11.689C6.5538 11.2892 6.71528 11.02 6.89215 10.8662C5.52337 10.7124 4.09307 10.1818 4.09307 7.8288C4.09307 7.15979 4.33145 6.60613 4.72363 6.17551C4.66211 6.02171 4.4468 5.39116 4.78515 4.54529C4.78515 4.54529 5.30036 4.38381 6.4769 5.17585C6.96904 5.03743 7.49195 4.96823 8.01485 4.96823C8.53776 4.96823 9.06066 5.03743 9.55281 5.17585C10.7293 4.37612 11.2446 4.54529 11.2446 4.54529C11.5829 5.39116 11.3676 6.02171 11.3061 6.17551C11.6983 6.60613 11.9366 7.1521 11.9366 7.8288C11.9366 10.1895 10.4987 10.7124 9.12987 10.8662C9.35287 11.0585 9.54512 11.4276 9.54512 12.0043C9.54512 12.8271 9.53743 13.4884 9.53743 13.696C9.53743 13.8575 9.65278 14.0498 9.96037 13.9882C11.1817 13.5761 12.243 12.7912 12.9948 11.7442C13.7466 10.6972 14.1511 9.44074 14.1513 8.15176C14.1513 4.75291 11.3984 2 7.99947 2Z" fill="#314321"/>
</svg>
