<svg width="500" height="359" viewBox="0 0 500 359" fill="none" xmlns="http://www.w3.org/2000/svg">
<path fill-rule="evenodd" clip-rule="evenodd" d="M16.636 356.799C7.45037 356.799 0.00392152 349.352 0.00392112 340.167L0.00390698 16.6291C0.00390658 7.44342 7.45034 -0.00299105 16.636 -0.00299145L483.372 -0.00301185C492.557 -0.00301225 500.004 7.4434 500.004 16.629L500.004 340.167C500.004 349.352 492.557 356.799 483.372 356.799L179.734 356.799C179.921 357.069 180.031 357.396 180.031 357.75C180.031 358.119 179.732 358.418 179.363 358.418L152.309 358.418C151.94 358.418 151.641 358.119 151.641 357.75C151.641 357.396 151.75 357.069 151.938 356.799L145.665 356.799C145.853 357.069 145.962 357.396 145.962 357.75C145.962 358.119 145.663 358.418 145.294 358.418L118.241 358.418C117.871 358.418 117.572 358.119 117.572 357.75C117.572 357.396 117.682 357.069 117.869 356.799L99.2392 356.799C99.4265 357.069 99.5363 357.396 99.5363 357.75C99.5363 358.119 99.2372 358.418 98.8681 358.418L84.1724 358.418C83.8034 358.418 83.5042 358.119 83.5042 357.75C83.5042 357.396 83.614 357.069 83.8013 356.799L16.636 356.799ZM462.559 22.5487C462.559 20.7097 461.068 19.2188 459.229 19.2188L40.1086 19.2187C38.2695 19.2187 36.7786 20.7096 36.7786 22.5487L36.7786 335.229C36.7786 337.068 38.2694 338.559 40.1086 338.559L459.229 338.559C461.068 338.559 462.559 337.068 462.559 335.229L462.559 22.5487Z" fill="black"/>
<path fill-rule="evenodd" clip-rule="evenodd" d="M17.7109 190.094C17.7109 190.832 18.3091 191.43 19.0469 191.43C19.7848 191.43 20.3829 190.832 20.3829 190.094L20.3829 166.373C20.3829 165.635 19.7848 165.037 19.0469 165.037C18.3091 165.037 17.7109 165.635 17.7109 166.373L17.7109 190.094ZM488.071 178.399C488.071 182.692 484.592 186.171 480.3 186.171C476.009 186.171 472.53 182.692 472.53 178.399C472.53 174.105 476.009 170.626 480.3 170.626C484.592 170.626 488.071 174.105 488.071 178.399ZM489.318 178.399C489.318 183.38 485.281 187.419 480.3 187.419C475.32 187.419 471.282 183.38 471.282 178.399C471.282 173.417 475.32 169.378 480.3 169.378C485.281 169.378 489.318 173.417 489.318 178.399Z" fill="#E5E5E5" fill-opacity="0.5"/>
</svg>
