<svg width="1672" height="3299" viewBox="0 0 1672 3299" fill="none" xmlns="http://www.w3.org/2000/svg">
<path fill-rule="evenodd" clip-rule="evenodd" d="M1355.58 0H1205.02H1081.55H591.332H429.671H317.304C116.272 0 9.5901 101.84 9.5901 296.271V450.825H4.08227C1.82776 450.825 0.00012207 452.653 0.00012207 454.907V566.829C0.00012207 569.084 1.82776 570.911 4.08227 570.911H9.5901V674.711L1.3411 679.733V851.915V863.16V899.156L9.5901 904.177V960.971L1.3411 965.993V1138.17V1149.42V1185.42L9.5901 1190.44V2756.44V2771.61V3001.95C9.5901 3196.38 116.272 3298.22 317.304 3298.22H429.671H591.332H1081.55H1205.02H1355.58C1556.61 3298.22 1663.29 3196.38 1663.29 3001.95V2771.61V2756.44V1115.37L1672 1110.07V937.885V926.641V754.459L1663.29 749.158V541.782V458.743V296.271C1663.29 101.84 1556.61 0 1355.58 0ZM969.34 144.07C969.34 129.706 980.986 118.06 995.352 118.06C1009.72 118.06 1021.36 129.706 1021.36 144.07C1021.36 158.436 1009.72 170.082 995.352 170.082C980.986 170.082 969.34 158.436 969.34 144.07ZM766.746 129.692H907.302C915.154 129.692 921.52 136.057 921.52 143.909C921.52 151.761 915.154 158.126 907.302 158.126H766.746C758.893 158.126 752.528 151.761 752.528 143.909C752.528 136.057 758.893 129.692 766.746 129.692ZM1543.35 2943.72V2940.86C1543.68 2853.87 1543.41 2764.97 1543.14 2676.08C1542.87 2587.18 1542.6 2498.29 1542.94 2411.29C1542.94 2142.5 1542.86 1875.14 1542.78 1607.77C1542.71 1340.41 1542.63 1073.05 1542.63 804.259C1542.63 733.238 1542.5 634.148 1542.38 535.059C1542.25 435.97 1542.13 336.881 1542.13 265.859C1540.77 237.421 1529.55 200.428 1516.73 181.797C1488.2 140.54 1435.69 118.405 1401.21 118.156C1369.91 118.142 1336.6 118.147 1301.96 118.151C1284.13 118.153 1265.95 118.156 1247.5 118.156C1241.98 118.16 1229.36 120.819 1229.31 142.047C1229.19 189.227 1195.5 231.213 1146.73 231.213C1095.91 231.209 986.117 231.255 870.85 231.311C732.667 231.24 587.143 231.178 526.26 231.178C477.494 231.178 443.795 189.19 443.681 142.01C443.63 120.783 431.015 118.12 425.49 118.12C407.047 118.12 388.864 118.118 371.035 118.116C336.395 118.111 303.09 118.107 271.794 118.12C237.304 118.37 184.801 140.505 156.278 181.761C143.456 200.392 132.23 237.386 130.876 265.825C130.876 336.847 130.752 435.937 130.627 535.027C130.503 634.117 130.379 733.207 130.379 804.229C130.379 1073.02 130.3 1340.39 130.221 1607.76C130.142 1875.12 130.063 2142.49 130.063 2411.28C130.402 2498.19 130.131 2587 129.861 2675.81C129.59 2764.79 129.318 2853.78 129.66 2940.85L129.66 2943.97C129.658 2975.52 129.656 3006.46 131.436 3038.54C140.015 3114.88 173.657 3151.76 228.73 3169.46C244.878 3173.91 262.45 3177.98 285.456 3178.37C364.598 3178.34 471.392 3178.35 545.031 3178.37H1127.95C1201.6 3178.35 1308.4 3178.34 1387.54 3178.37C1410.54 3177.98 1428.12 3173.91 1444.26 3169.46C1499.34 3151.76 1532.99 3114.88 1541.57 3038.54C1543.35 3006.37 1543.35 2975.35 1543.35 2943.72Z" fill="black"/>
</svg>
