<svg width="16" height="16" viewBox="0 0 16 16" fill="none" xmlns="http://www.w3.org/2000/svg">
<path d="M2 2.8595C2 2.38475 2.3945 2 2.88125 2H13.1187C13.6055 2 14 2.38475 14 2.8595V13.1405C14 13.6153 13.6055 14 13.1187 14H2.88125C2.3945 14 2 13.6153 2 13.1405V2.8595ZM5.70725 12.0455V6.62675H3.9065V12.0455H5.70725ZM4.80725 5.8865C5.435 5.8865 5.82575 5.471 5.82575 4.9505C5.8145 4.41875 5.43575 4.0145 4.81925 4.0145C4.20275 4.0145 3.8 4.4195 3.8 4.9505C3.8 5.471 4.19075 5.8865 4.79525 5.8865H4.80725ZM8.48825 12.0455V9.01925C8.48825 8.85725 8.50025 8.69525 8.54825 8.57975C8.678 8.2565 8.97425 7.92125 9.47225 7.92125C10.124 7.92125 10.3842 8.41775 10.3842 9.14675V12.0455H12.185V8.9375C12.185 7.2725 11.297 6.4985 10.112 6.4985C9.1565 6.4985 8.72825 7.0235 8.48825 7.39325V7.412H8.47625C8.48023 7.40574 8.48423 7.39949 8.48825 7.39325V6.62675H6.68825C6.71075 7.13525 6.68825 12.0455 6.68825 12.0455H8.48825Z" fill="#314321"/>
</svg>
