<svg width="12" height="13" viewBox="0 0 12 13" fill="none" xmlns="http://www.w3.org/2000/svg">
<path d="M8.66667 4.33333H8.19048V3.38095C8.19048 2.06667 7.12381 1 5.80952 1C4.49524 1 3.42857 2.06667 3.42857 3.38095V4.33333H2.95238C2.42857 4.33333 2 4.7619 2 5.28571V10.0476C2 10.5714 2.42857 11 2.95238 11H8.66667C9.19048 11 9.61905 10.5714 9.61905 10.0476V5.28571C9.61905 4.7619 9.19048 4.33333 8.66667 4.33333ZM5.80952 8.61905C5.28571 8.61905 4.85714 8.19048 4.85714 7.66667C4.85714 7.14286 5.28571 6.71429 5.80952 6.71429C6.33333 6.71429 6.76191 7.14286 6.76191 7.66667C6.76191 8.19048 6.33333 8.61905 5.80952 8.61905ZM4.38095 4.33333V3.38095C4.38095 2.59048 5.01905 1.95238 5.80952 1.95238C6.6 1.95238 7.2381 2.59048 7.2381 3.38095V4.33333H4.38095Z" fill="#314321"/>
</svg>
