<svg width="711" height="587" viewBox="0 0 711 587" fill="none" xmlns="http://www.w3.org/2000/svg">
<g clip-path="url(#clip0_3210_21568)">
<rect width="711" height="586" transform="translate(0 0.575195)" fill="#E9FAE2"/>
<line x1="178.703" y1="82.0752" x2="628.779" y2="82.0752" stroke="#82897E" stroke-opacity="0.2"/>
<line x1="179.266" y1="186.474" x2="628.772" y2="186.474" stroke="#82897E" stroke-opacity="0.2"/>
<line x1="179.266" y1="291.871" x2="628.772" y2="291.871" stroke="#82897E" stroke-opacity="0.2"/>
<line x1="179.266" y1="396.13" x2="628.772" y2="396.13" stroke="#82897E" stroke-opacity="0.2"/>
<path d="M439.68 434.067C276.448 423.521 198.333 194.864 179.68 81.5674V434.067H439.68Z" fill="#A35700"/>
<rect x="178.844" y="433.567" width="450" height="67" fill="#4A5E14"/>
<line x1="179.188" y1="81.5771" x2="179.188" y2="500.889" stroke="black"/>
<line x1="178.688" y1="500.389" x2="628.764" y2="500.389" stroke="black"/>
<path d="M128.972 296.111C126.675 296.111 125.526 294.361 125.362 292.939H127.769C127.841 293.486 128.188 294.252 128.954 294.252C129.829 294.252 130.303 293.231 130.303 291.791C130.303 290.296 129.938 289.275 129.045 289.275C128.407 289.275 127.951 289.858 127.787 290.514H125.599L126.511 283.076H132.053V284.972H128.261L127.787 288.582C128.151 287.98 128.808 287.543 129.646 287.543C131.287 287.543 132.545 289.184 132.545 291.791C132.545 294.252 131.178 296.111 128.972 296.111ZM137.143 296.111C134.791 296.111 133.296 293.905 133.296 289.457C133.296 285.009 134.791 282.803 137.143 282.803C139.495 282.803 140.99 285.009 140.99 289.457C140.99 293.905 139.495 296.111 137.143 296.111ZM135.575 289.457C135.575 292.848 136.122 294.27 137.143 294.27C138.164 294.27 138.711 292.848 138.711 289.457C138.711 286.066 138.164 284.644 137.143 284.644C136.122 284.644 135.575 286.066 135.575 289.457ZM149.22 297.661L159.83 283.076H162.201L151.59 297.661H149.22ZM149.421 283.113C149.421 279.922 151.061 278.19 153.121 278.19C155.182 278.19 156.822 279.922 156.822 283.113C156.822 286.303 155.4 288.035 153.121 288.035C151.061 288.035 149.421 286.303 149.421 283.113ZM151.572 283.113C151.572 285.337 152.101 286.358 153.121 286.358C154.161 286.358 154.671 285.337 154.671 283.113C154.671 280.925 154.161 279.868 153.121 279.868C152.082 279.868 151.572 280.925 151.572 283.113ZM154.562 297.606C154.562 294.416 156.203 292.684 158.263 292.684C160.323 292.684 161.964 294.416 161.964 297.606C161.964 300.797 160.541 302.529 158.263 302.529C156.203 302.529 154.562 300.797 154.562 297.606ZM156.713 297.606C156.713 299.83 157.242 300.851 158.263 300.851C159.302 300.851 159.812 299.83 159.812 297.606C159.812 295.419 159.302 294.361 158.263 294.361C157.223 294.361 156.713 295.419 156.713 297.606Z" fill="black"/>
<path d="M121.967 90.1816V81.5037H118.302V79.9905C120.381 79.9905 121.839 79.0972 122.258 77.42H124.173V90.1816H121.967ZM129.737 90.4551C127.385 90.4551 125.89 88.2492 125.89 83.8008C125.89 79.3525 127.385 77.1465 129.737 77.1465C132.089 77.1465 133.584 79.3525 133.584 83.8008C133.584 88.2492 132.089 90.4551 129.737 90.4551ZM128.169 83.8008C128.169 87.1918 128.716 88.6138 129.737 88.6138C130.758 88.6138 131.305 87.1918 131.305 83.8008C131.305 80.4099 130.758 78.9878 129.737 78.9878C128.716 78.9878 128.169 80.4099 128.169 83.8008ZM137.927 90.4551C135.575 90.4551 134.08 88.2492 134.08 83.8008C134.08 79.3525 135.575 77.1465 137.927 77.1465C140.278 77.1465 141.773 79.3525 141.773 83.8008C141.773 88.2492 140.278 90.4551 137.927 90.4551ZM136.359 83.8008C136.359 87.1918 136.906 88.6138 137.927 88.6138C138.948 88.6138 139.495 87.1918 139.495 83.8008C139.495 80.4099 138.948 78.9878 137.927 78.9878C136.906 78.9878 136.359 80.4099 136.359 83.8008ZM150.004 92.0047L160.614 77.42H162.984L152.374 92.0047H150.004ZM150.204 77.4564C150.204 74.266 151.845 72.5341 153.905 72.5341C155.965 72.5341 157.606 74.266 157.606 77.4564C157.606 80.6469 156.184 82.3788 153.905 82.3788C151.845 82.3788 150.204 80.6469 150.204 77.4564ZM152.355 77.4564C152.355 79.6806 152.884 80.7016 153.905 80.7016C154.944 80.7016 155.455 79.6806 155.455 77.4564C155.455 75.2687 154.944 74.2113 153.905 74.2113C152.866 74.2113 152.355 75.2687 152.355 77.4564ZM155.345 91.95C155.345 88.7596 156.986 87.0277 159.046 87.0277C161.106 87.0277 162.747 88.7596 162.747 91.95C162.747 95.1405 161.325 96.8724 159.046 96.8724C156.986 96.8724 155.345 95.1405 155.345 91.95ZM157.496 91.95C157.496 94.1742 158.025 95.1951 159.046 95.1951C160.085 95.1951 160.596 94.1742 160.596 91.95C160.596 89.7623 160.085 88.7049 159.046 88.7049C158.007 88.7049 157.496 89.7623 157.496 91.95Z" fill="black"/>
<path d="M129.373 459.218V450.54H125.708V449.027C127.787 449.027 129.245 448.133 129.665 446.456H131.579V459.218H129.373ZM137.143 459.491C134.791 459.491 133.296 457.285 133.296 452.837C133.296 448.389 134.791 446.183 137.143 446.183C139.495 446.183 140.99 448.389 140.99 452.837C140.99 457.285 139.495 459.491 137.143 459.491ZM135.575 452.837C135.575 456.228 136.122 457.65 137.143 457.65C138.164 457.65 138.711 456.228 138.711 452.837C138.711 449.446 138.164 448.024 137.143 448.024C136.122 448.024 135.575 449.446 135.575 452.837ZM149.22 461.041L159.83 446.456H162.201L151.59 461.041H149.22ZM149.421 446.493C149.421 443.302 151.061 441.57 153.121 441.57C155.182 441.57 156.822 443.302 156.822 446.493C156.822 449.683 155.4 451.415 153.121 451.415C151.061 451.415 149.421 449.683 149.421 446.493ZM151.572 446.493C151.572 448.717 152.101 449.738 153.121 449.738C154.161 449.738 154.671 448.717 154.671 446.493C154.671 444.305 154.161 443.247 153.121 443.247C152.082 443.247 151.572 444.305 151.572 446.493ZM154.562 460.986C154.562 457.796 156.203 456.064 158.263 456.064C160.323 456.064 161.964 457.796 161.964 460.986C161.964 464.177 160.541 465.909 158.263 465.909C156.203 465.909 154.562 464.177 154.562 460.986ZM156.713 460.986C156.713 463.21 157.242 464.231 158.263 464.231C159.302 464.231 159.812 463.21 159.812 460.986C159.812 458.798 159.302 457.741 158.263 457.741C157.223 457.741 156.713 458.798 156.713 460.986Z" fill="black"/>
<path d="M210.088 366.292C207.48 366.292 205.768 364.66 205.768 361.988V354.852H207.768V361.732C207.768 363.524 208.552 364.532 210.088 364.532C211.624 364.532 212.408 363.524 212.408 361.732V354.852H214.408V361.988C214.408 364.66 212.696 366.292 210.088 366.292ZM219.61 366.292C217.466 366.292 216.17 365.172 216.01 363.668H217.994C218.122 364.356 218.682 364.9 219.642 364.9C220.474 364.9 220.986 364.5 220.986 363.86C220.986 363.284 220.586 362.996 219.674 362.772L218.778 362.532C217.098 362.084 216.266 361.412 216.266 360.164C216.266 358.676 217.61 357.652 219.45 357.652C221.45 357.652 222.49 358.724 222.666 359.94H220.826C220.65 359.38 220.154 359.044 219.418 359.044C218.666 359.044 218.138 359.444 218.138 360.004C218.138 360.5 218.474 360.74 219.242 360.948L220.074 361.188C221.754 361.636 222.874 362.26 222.874 363.684C222.874 365.252 221.53 366.292 219.61 366.292ZM226.999 366.292C224.887 366.292 223.543 364.5 223.543 361.972C223.543 359.412 225.047 357.636 226.967 357.636C228.967 357.636 230.295 359.412 230.311 362.516H225.479C225.527 363.892 226.167 364.788 227.063 364.788C227.703 364.788 227.975 364.404 228.151 363.956H230.087C229.735 365.284 228.615 366.292 226.999 366.292ZM225.495 361.124H228.535C228.391 359.892 227.863 359.124 227.015 359.124C226.199 359.124 225.607 359.94 225.495 361.124ZM231.973 366.052V357.876H233.845V359.668C234.373 358.132 235.685 357.508 237.397 357.636V359.476C236.693 359.428 236.149 359.444 235.685 359.556C234.437 359.892 233.893 360.932 233.893 362.5V366.052H231.973ZM241.922 366.292C239.778 366.292 238.482 365.172 238.322 363.668H240.306C240.434 364.356 240.994 364.9 241.954 364.9C242.786 364.9 243.298 364.5 243.298 363.86C243.298 363.284 242.898 362.996 241.986 362.772L241.09 362.532C239.41 362.084 238.578 361.412 238.578 360.164C238.578 358.676 239.922 357.652 241.762 357.652C243.762 357.652 244.802 358.724 244.978 359.94H243.138C242.962 359.38 242.466 359.044 241.73 359.044C240.978 359.044 240.45 359.444 240.45 360.004C240.45 360.5 240.786 360.74 241.554 360.948L242.386 361.188C244.066 361.636 245.186 362.26 245.186 363.684C245.186 365.252 243.842 366.292 241.922 366.292ZM205.128 384.052L204.408 375.876H206.104L206.52 382.676L207.288 377.572H209.144L209.88 382.708L210.264 375.876H211.928L211.24 384.052H208.952L208.184 378.948L207.432 384.052H205.128ZM212.55 384.052V372.852H214.454V376.82C214.822 376.18 215.558 375.636 216.534 375.636C217.926 375.636 218.79 376.644 218.79 378.468V384.052H216.87V378.548C216.87 377.684 216.582 377.204 215.91 377.204C215.158 377.204 214.454 377.828 214.454 379.14V384.052H212.55ZM223.043 384.292C221.011 384.292 219.539 382.5 219.539 379.972C219.539 377.444 221.011 375.636 223.043 375.636C225.075 375.636 226.547 377.444 226.547 379.972C226.547 382.5 225.075 384.292 223.043 384.292ZM221.507 379.972C221.507 381.748 222.067 382.756 223.043 382.756C224.019 382.756 224.579 381.748 224.579 379.972C224.579 378.18 224.019 377.188 223.043 377.188C222.067 377.188 221.507 378.18 221.507 379.972ZM238.11 384.292C236.142 384.292 234.734 382.676 234.734 379.988C234.734 377.348 236.206 375.652 238.174 375.652C239.902 375.652 240.878 376.916 241.134 378.356H239.294C239.166 377.764 238.83 377.22 238.19 377.22C237.326 377.22 236.734 378.132 236.734 379.988C236.734 381.828 237.31 382.724 238.158 382.724C238.814 382.724 239.15 382.18 239.294 381.588H241.15C240.878 383.028 239.902 384.292 238.11 384.292ZM242.3 384.052V372.852H244.204V376.82C244.572 376.18 245.308 375.636 246.284 375.636C247.676 375.636 248.54 376.644 248.54 378.468V384.052H246.62V378.548C246.62 377.684 246.332 377.204 245.66 377.204C244.908 377.204 244.204 377.828 244.204 379.14V384.052H242.3ZM251.961 384.292C250.553 384.292 249.641 383.364 249.641 381.572V375.876H251.561V381.332C251.561 382.196 251.849 382.724 252.569 382.724C253.273 382.724 253.897 382.1 253.897 380.596V375.876H255.817V384.052H253.945V383.14C253.561 383.828 252.937 384.292 251.961 384.292ZM257.895 384.052V375.876H259.767V377.668C260.295 376.132 261.607 375.508 263.319 375.636V377.476C262.615 377.428 262.071 377.444 261.607 377.556C260.359 377.892 259.815 378.932 259.815 380.5V384.052H257.895ZM264.612 384.052V375.876H266.468V376.916C266.836 376.18 267.604 375.636 268.58 375.636C269.988 375.636 270.852 376.644 270.852 378.468V384.052H268.932V378.548C268.932 377.684 268.644 377.204 267.972 377.204C267.22 377.204 266.516 377.828 266.516 379.14V384.052H264.612Z" fill="black"/>
<path d="M210.088 471.272C207.48 471.272 205.768 469.64 205.768 466.968V459.832H207.768V466.712C207.768 468.504 208.552 469.512 210.088 469.512C211.624 469.512 212.408 468.504 212.408 466.712V459.832H214.408V466.968C214.408 469.64 212.696 471.272 210.088 471.272ZM219.61 471.272C217.466 471.272 216.17 470.152 216.01 468.648H217.994C218.122 469.336 218.682 469.88 219.642 469.88C220.474 469.88 220.986 469.48 220.986 468.84C220.986 468.264 220.586 467.976 219.674 467.752L218.778 467.512C217.098 467.064 216.266 466.392 216.266 465.144C216.266 463.656 217.61 462.632 219.45 462.632C221.45 462.632 222.49 463.704 222.666 464.92H220.826C220.65 464.36 220.154 464.024 219.418 464.024C218.666 464.024 218.138 464.424 218.138 464.984C218.138 465.48 218.474 465.72 219.242 465.928L220.074 466.168C221.754 466.616 222.874 467.24 222.874 468.664C222.874 470.232 221.53 471.272 219.61 471.272ZM226.999 471.272C224.887 471.272 223.543 469.48 223.543 466.952C223.543 464.392 225.047 462.616 226.967 462.616C228.967 462.616 230.295 464.392 230.311 467.496H225.479C225.527 468.872 226.167 469.768 227.063 469.768C227.703 469.768 227.975 469.384 228.151 468.936H230.087C229.735 470.264 228.615 471.272 226.999 471.272ZM225.495 466.104H228.535C228.391 464.872 227.863 464.104 227.015 464.104C226.199 464.104 225.607 464.92 225.495 466.104ZM231.973 471.032V462.856H233.845V464.648C234.373 463.112 235.685 462.488 237.397 462.616V464.456C236.693 464.408 236.149 464.424 235.685 464.536C234.437 464.872 233.893 465.912 233.893 467.48V471.032H231.973ZM241.922 471.272C239.778 471.272 238.482 470.152 238.322 468.648H240.306C240.434 469.336 240.994 469.88 241.954 469.88C242.786 469.88 243.298 469.48 243.298 468.84C243.298 468.264 242.898 467.976 241.986 467.752L241.09 467.512C239.41 467.064 238.578 466.392 238.578 465.144C238.578 463.656 239.922 462.632 241.762 462.632C243.762 462.632 244.802 463.704 244.978 464.92H243.138C242.962 464.36 242.466 464.024 241.73 464.024C240.978 464.024 240.45 464.424 240.45 464.984C240.45 465.48 240.786 465.72 241.554 465.928L242.386 466.168C244.066 466.616 245.186 467.24 245.186 468.664C245.186 470.232 243.842 471.272 241.922 471.272ZM253.581 471.032L252.861 462.856H254.557L254.973 469.656L255.741 464.552H257.597L258.333 469.688L258.717 462.856H260.381L259.693 471.032H257.405L256.637 465.928L255.885 471.032H253.581ZM261.003 471.032V459.832H262.907V463.8C263.275 463.16 264.011 462.616 264.987 462.616C266.379 462.616 267.243 463.624 267.243 465.448V471.032H265.323V465.528C265.323 464.664 265.035 464.184 264.363 464.184C263.611 464.184 262.907 464.808 262.907 466.12V471.032H261.003ZM271.496 471.272C269.464 471.272 267.992 469.48 267.992 466.952C267.992 464.424 269.464 462.616 271.496 462.616C273.528 462.616 275 464.424 275 466.952C275 469.48 273.528 471.272 271.496 471.272ZM269.96 466.952C269.96 468.728 270.52 469.736 271.496 469.736C272.472 469.736 273.032 468.728 273.032 466.952C273.032 465.16 272.472 464.168 271.496 464.168C270.52 464.168 269.96 465.16 269.96 466.952ZM286.547 471.272C284.403 471.272 283.107 470.152 282.947 468.648H284.931C285.059 469.336 285.619 469.88 286.579 469.88C287.411 469.88 287.923 469.48 287.923 468.84C287.923 468.264 287.523 467.976 286.611 467.752L285.715 467.512C284.035 467.064 283.203 466.392 283.203 465.144C283.203 463.656 284.547 462.632 286.387 462.632C288.387 462.632 289.427 463.704 289.603 464.92H287.763C287.587 464.36 287.091 464.024 286.355 464.024C285.603 464.024 285.075 464.424 285.075 464.984C285.075 465.48 285.411 465.72 286.179 465.928L287.011 466.168C288.691 466.616 289.811 467.24 289.811 468.664C289.811 470.232 288.467 471.272 286.547 471.272ZM292.977 471.272C291.569 471.272 290.657 470.344 290.657 468.552V462.856H292.577V468.312C292.577 469.176 292.865 469.704 293.585 469.704C294.289 469.704 294.913 469.08 294.913 467.576V462.856H296.833V471.032H294.961V470.12C294.577 470.808 293.953 471.272 292.977 471.272ZM301.438 471.272C299.47 471.272 298.062 469.656 298.062 466.968C298.062 464.328 299.534 462.632 301.502 462.632C303.23 462.632 304.206 463.896 304.462 465.336H302.622C302.494 464.744 302.158 464.2 301.518 464.2C300.654 464.2 300.062 465.112 300.062 466.968C300.062 468.808 300.638 469.704 301.486 469.704C302.142 469.704 302.478 469.16 302.622 468.568H304.478C304.206 470.008 303.23 471.272 301.438 471.272ZM308.876 471.272C306.908 471.272 305.5 469.656 305.5 466.968C305.5 464.328 306.972 462.632 308.94 462.632C310.668 462.632 311.644 463.896 311.9 465.336H310.06C309.932 464.744 309.596 464.2 308.956 464.2C308.092 464.2 307.5 465.112 307.5 466.968C307.5 468.808 308.076 469.704 308.924 469.704C309.58 469.704 309.916 469.16 310.06 468.568H311.916C311.644 470.008 310.668 471.272 308.876 471.272ZM316.249 471.272C314.137 471.272 312.793 469.48 312.793 466.952C312.793 464.392 314.297 462.616 316.217 462.616C318.217 462.616 319.545 464.392 319.561 467.496H314.729C314.777 468.872 315.417 469.768 316.313 469.768C316.953 469.768 317.225 469.384 317.401 468.936H319.337C318.985 470.264 317.865 471.272 316.249 471.272ZM314.745 466.104H317.785C317.641 464.872 317.113 464.104 316.265 464.104C315.449 464.104 314.857 464.92 314.745 466.104ZM323.735 471.272C321.591 471.272 320.295 470.152 320.135 468.648H322.119C322.247 469.336 322.807 469.88 323.767 469.88C324.599 469.88 325.111 469.48 325.111 468.84C325.111 468.264 324.711 467.976 323.799 467.752L322.903 467.512C321.223 467.064 320.391 466.392 320.391 465.144C320.391 463.656 321.735 462.632 323.575 462.632C325.575 462.632 326.615 463.704 326.791 464.92H324.951C324.775 464.36 324.279 464.024 323.543 464.024C322.791 464.024 322.263 464.424 322.263 464.984C322.263 465.48 322.599 465.72 323.367 465.928L324.199 466.168C325.879 466.616 326.999 467.24 326.999 468.664C326.999 470.232 325.655 471.272 323.735 471.272ZM331.172 471.272C329.028 471.272 327.732 470.152 327.572 468.648H329.556C329.684 469.336 330.244 469.88 331.204 469.88C332.036 469.88 332.548 469.48 332.548 468.84C332.548 468.264 332.148 467.976 331.236 467.752L330.34 467.512C328.66 467.064 327.828 466.392 327.828 465.144C327.828 463.656 329.172 462.632 331.012 462.632C333.012 462.632 334.052 463.704 334.228 464.92H332.388C332.212 464.36 331.716 464.024 330.98 464.024C330.228 464.024 329.7 464.424 329.7 464.984C329.7 465.48 330.036 465.72 330.804 465.928L331.636 466.168C333.316 466.616 334.436 467.24 334.436 468.664C334.436 470.232 333.092 471.272 331.172 471.272ZM337.202 471.032V464.376H335.074V462.856H337.202V462.216C337.202 460.392 338.514 459.608 340.418 459.608C340.85 459.608 341.314 459.64 341.666 459.72V461.224C341.298 461.176 340.962 461.144 340.674 461.144C339.618 461.144 339.138 461.496 339.138 462.392V462.856H341.794V464.376H339.138V471.032H337.202ZM345.039 471.272C343.631 471.272 342.719 470.344 342.719 468.552V462.856H344.639V468.312C344.639 469.176 344.927 469.704 345.647 469.704C346.351 469.704 346.975 469.08 346.975 467.576V462.856H348.895V471.032H347.023V470.12C346.639 470.808 346.015 471.272 345.039 471.272ZM350.189 471.032V469.56H352.349V461.304H350.189V459.832H354.269V469.56H356.429V471.032H350.189ZM357.626 471.032V469.56H359.786V461.304H357.626V459.832H361.706V469.56H363.866V471.032H357.626ZM366.2 474.344C365.944 474.344 365.656 474.328 365.368 474.264V472.68C365.592 472.728 365.784 472.744 365.976 472.744C366.76 472.744 367.24 472.28 367.24 471.432C367.24 471.064 367.128 470.664 366.984 470.216L364.6 462.856H366.632L367.752 466.968C367.96 467.72 368.088 468.28 368.28 469.08H368.312C368.472 468.312 368.616 467.736 368.824 466.968L369.928 462.856H371.848L369.272 471.368C369 472.296 368.76 472.984 368.36 473.464C367.912 474.024 367.208 474.344 366.2 474.344ZM383.059 471.272C381.027 471.272 379.555 469.48 379.555 466.952C379.555 464.424 381.027 462.616 383.059 462.616C385.091 462.616 386.563 464.424 386.563 466.952C386.563 469.48 385.091 471.272 383.059 471.272ZM381.523 466.952C381.523 468.728 382.083 469.736 383.059 469.736C384.035 469.736 384.595 468.728 384.595 466.952C384.595 465.16 384.035 464.168 383.059 464.168C382.083 464.168 381.523 465.16 381.523 466.952ZM387.44 471.032V462.856H389.296V463.896C389.664 463.16 390.432 462.616 391.408 462.616C392.816 462.616 393.68 463.624 393.68 465.448V471.032H391.76V465.528C391.76 464.664 391.472 464.184 390.8 464.184C390.048 464.184 389.344 464.808 389.344 466.12V471.032H387.44ZM398.558 471.272C397.598 471.272 396.974 470.728 396.574 469.976V471.032H394.67V459.832H396.574V463.896C396.958 463.144 397.582 462.616 398.558 462.616C400.238 462.616 401.47 464.264 401.47 466.952C401.47 469.64 400.238 471.272 398.558 471.272ZM396.558 466.952C396.558 468.584 397.182 469.752 398.094 469.752C399.022 469.752 399.518 468.664 399.518 466.952C399.518 465.256 399.022 464.152 398.094 464.152C397.182 464.152 396.558 465.336 396.558 466.952ZM405.371 471.272C403.339 471.272 401.867 469.48 401.867 466.952C401.867 464.424 403.339 462.616 405.371 462.616C407.403 462.616 408.875 464.424 408.875 466.952C408.875 469.48 407.403 471.272 405.371 471.272ZM403.835 466.952C403.835 468.728 404.395 469.736 405.371 469.736C406.347 469.736 406.907 468.728 406.907 466.952C406.907 465.16 406.347 464.168 405.371 464.168C404.395 464.168 403.835 465.16 403.835 466.952ZM411.993 471.256C410.585 471.256 409.337 470.376 409.337 468.792C409.337 466.936 411.049 466.472 412.313 466.296L412.841 466.2C413.833 466.056 414.233 465.8 414.233 465.112C414.233 464.456 413.817 464.008 413.001 464.008C412.185 464.008 411.689 464.408 411.561 464.968H409.657C409.913 463.656 411.017 462.616 413.017 462.616C415.097 462.616 416.057 463.608 416.057 465.192V469.064C416.057 469.736 416.185 470.488 416.313 471.032H414.425C414.377 470.76 414.329 470.36 414.297 470.024C413.977 470.6 413.241 471.256 411.993 471.256ZM411.209 468.696C411.209 469.384 411.769 469.784 412.473 469.784C413.529 469.784 414.217 468.92 414.217 467.752V466.808C414.009 467.112 413.545 467.336 412.713 467.48C411.753 467.64 411.209 467.944 411.209 468.696ZM417.91 471.032V462.856H419.782V464.648C420.31 463.112 421.622 462.488 423.334 462.616V464.456C422.63 464.408 422.086 464.424 421.622 464.536C420.374 464.872 419.83 465.912 419.83 467.48V471.032H417.91ZM427.076 471.272C425.396 471.272 424.164 469.624 424.164 466.936C424.164 464.248 425.396 462.616 427.076 462.616C428.036 462.616 428.676 463.16 429.06 463.912V459.832H430.964V471.032H429.06V470.008C428.676 470.744 428.052 471.272 427.076 471.272ZM426.116 466.936C426.116 468.648 426.612 469.752 427.54 469.752C428.452 469.752 429.092 468.568 429.092 466.936C429.092 465.32 428.452 464.152 427.54 464.152C426.612 464.152 426.116 465.24 426.116 466.936Z" fill="black"/>
<path d="M99 436.445L87.8 436.445L87.8 432.653C87.8 430.221 89.144 428.413 91.24 428.413C93.352 428.413 94.76 430.205 94.76 432.653L94.76 434.445L99 434.445L99 436.445ZM93.064 434.445L93.064 432.781C93.064 431.533 92.504 430.477 91.24 430.477C89.944 430.477 89.416 431.533 89.416 432.781L89.416 434.445L93.064 434.445ZM99.24 423.291C99.24 425.403 97.448 426.747 94.92 426.747C92.36 426.747 90.584 425.243 90.584 423.323C90.584 421.323 92.36 419.995 95.464 419.979L95.464 424.811C96.84 424.763 97.736 424.123 97.736 423.227C97.736 422.587 97.352 422.315 96.904 422.139L96.904 420.203C98.232 420.555 99.24 421.675 99.24 423.291ZM94.072 424.795L94.072 421.755C92.84 421.899 92.072 422.427 92.072 423.275C92.072 424.091 92.888 424.683 94.072 424.795ZM99 418.637L90.824 418.637L90.824 416.765L92.616 416.765C91.08 416.237 90.456 414.925 90.584 413.213L92.424 413.213C92.376 413.917 92.392 414.461 92.504 414.925C92.84 416.173 93.88 416.717 95.448 416.717L99 416.717L99 418.637ZM99.24 408.991C99.24 410.959 97.624 412.367 94.936 412.367C92.296 412.367 90.6 410.895 90.6 408.927C90.6 407.199 91.864 406.223 93.304 405.967L93.304 407.807C92.712 407.935 92.168 408.271 92.168 408.911C92.168 409.775 93.08 410.367 94.936 410.367C96.776 410.367 97.672 409.791 97.672 408.943C97.672 408.287 97.128 407.951 96.536 407.807L96.536 405.951C97.976 406.223 99.24 407.199 99.24 408.991ZM99.24 401.937C99.24 404.049 97.448 405.393 94.92 405.393C92.36 405.393 90.584 403.889 90.584 401.969C90.584 399.969 92.36 398.641 95.464 398.625L95.464 403.457C96.84 403.409 97.736 402.769 97.736 401.873C97.736 401.233 97.352 400.961 96.904 400.785L96.904 398.849C98.232 399.201 99.24 400.321 99.24 401.937ZM94.072 403.441L94.072 400.401C92.84 400.545 92.072 401.073 92.072 401.921C92.072 402.737 92.888 403.329 94.072 403.441ZM99 398.004L90.824 398.004L90.824 396.148L91.864 396.148C91.128 395.78 90.584 395.012 90.584 394.036C90.584 392.628 91.592 391.764 93.416 391.764L99 391.764L99 393.684L93.496 393.684C92.632 393.684 92.152 393.972 92.152 394.644C92.152 395.396 92.776 396.1 94.088 396.1L99 396.1L99 398.004ZM99.08 386.15C99.08 387.734 98.408 388.918 96.664 388.918L92.392 388.918L92.392 390.95L90.824 390.95L90.824 388.918L88.424 388.918L88.424 387.062L90.824 387.062L90.824 384.79L92.392 384.79L92.392 387.062L96.296 387.062C97.144 387.062 97.544 386.694 97.544 385.814C97.544 385.51 97.512 385.142 97.416 384.71L98.872 384.71C98.936 384.934 99.08 385.51 99.08 386.15ZM99.224 381.528C99.224 382.936 98.344 384.184 96.76 384.184C94.904 384.184 94.44 382.472 94.264 381.208L94.168 380.68C94.024 379.688 93.768 379.288 93.08 379.288C92.424 379.288 91.976 379.704 91.976 380.52C91.976 381.336 92.376 381.832 92.936 381.96L92.936 383.864C91.624 383.608 90.584 382.504 90.584 380.504C90.584 378.424 91.576 377.464 93.16 377.464L97.032 377.464C97.704 377.464 98.456 377.336 99 377.208L99 379.096C98.728 379.144 98.328 379.192 97.992 379.224C98.568 379.544 99.224 380.28 99.224 381.528ZM96.664 382.312C97.352 382.312 97.752 381.752 97.752 381.048C97.752 379.992 96.888 379.304 95.72 379.304L94.776 379.304C95.08 379.512 95.304 379.976 95.448 380.808C95.608 381.768 95.912 382.312 96.664 382.312ZM102.36 373.61C102.36 375.482 101.304 376.458 100.024 376.634L100.024 374.714C100.52 374.602 100.888 374.266 100.888 373.578C100.888 372.666 100.2 372.186 98.888 372.186L97.56 372.186C98.28 372.506 98.808 373.066 98.808 374.074C98.808 375.674 97.4 376.97 94.712 376.97C92.024 376.97 90.6 375.674 90.6 374.074C90.6 373.066 91.128 372.474 91.848 372.154L90.824 372.154L90.824 370.298L98.808 370.298C100.792 370.298 102.36 371.322 102.36 373.61ZM94.696 375.034C96.344 375.034 97.32 374.554 97.32 373.626C97.32 372.73 96.248 372.154 94.696 372.154C93.128 372.154 92.072 372.73 92.072 373.626C92.072 374.538 93.08 375.034 94.696 375.034ZM99.24 366.348C99.24 368.46 97.448 369.804 94.92 369.804C92.36 369.804 90.584 368.3 90.584 366.38C90.584 364.38 92.36 363.052 95.464 363.036L95.464 367.868C96.84 367.82 97.736 367.18 97.736 366.284C97.736 365.644 97.352 365.372 96.904 365.196L96.904 363.26C98.232 363.612 99.24 364.732 99.24 366.348ZM94.072 367.852L94.072 364.812C92.84 364.956 92.072 365.484 92.072 366.332C92.072 367.148 92.888 367.74 94.072 367.852ZM99.24 352.241C99.24 354.273 97.448 355.745 94.92 355.745C92.392 355.745 90.584 354.273 90.584 352.241C90.584 350.209 92.392 348.737 94.92 348.737C97.448 348.737 99.24 350.209 99.24 352.241ZM94.92 353.777C96.696 353.777 97.704 353.217 97.704 352.241C97.704 351.265 96.696 350.705 94.92 350.705C93.128 350.705 92.136 351.265 92.136 352.241C92.136 353.217 93.128 353.777 94.92 353.777ZM99 346.355L92.344 346.355L92.344 348.483L90.824 348.483L90.824 346.355L90.184 346.355C88.36 346.355 87.576 345.043 87.576 343.139C87.576 342.707 87.608 342.243 87.688 341.891L89.192 341.891C89.144 342.259 89.112 342.595 89.112 342.883C89.112 343.939 89.464 344.419 90.36 344.419L90.824 344.419L90.824 341.763L92.344 341.763L92.344 344.419L99 344.419L99 346.355ZM99.24 331.719C99.24 333.127 98.312 334.039 96.52 334.039L90.824 334.039L90.824 332.119L96.28 332.119C97.144 332.119 97.672 331.831 97.672 331.111C97.672 330.407 97.048 329.783 95.544 329.783L90.824 329.783L90.824 327.863L99 327.863L99 329.735L98.088 329.735C98.776 330.119 99.24 330.743 99.24 331.719ZM99.24 323.594C99.24 325.738 98.12 327.034 96.616 327.194L96.616 325.21C97.304 325.082 97.848 324.522 97.848 323.562C97.848 322.73 97.448 322.218 96.808 322.218C96.232 322.218 95.944 322.618 95.72 323.53L95.48 324.426C95.032 326.106 94.36 326.938 93.112 326.938C91.624 326.938 90.6 325.594 90.6 323.754C90.6 321.754 91.672 320.714 92.888 320.538L92.888 322.378C92.328 322.554 91.992 323.05 91.992 323.786C91.992 324.538 92.392 325.066 92.952 325.066C93.448 325.066 93.688 324.73 93.896 323.962L94.136 323.13C94.584 321.45 95.208 320.33 96.632 320.33C98.2 320.33 99.24 321.674 99.24 323.594ZM99.24 316.524C99.24 318.636 97.448 319.98 94.92 319.98C92.36 319.98 90.584 318.476 90.584 316.556C90.584 314.556 92.36 313.228 95.464 313.212L95.464 318.044C96.84 317.996 97.736 317.356 97.736 316.46C97.736 315.82 97.352 315.548 96.904 315.372L96.904 313.436C98.232 313.788 99.24 314.908 99.24 316.524ZM94.072 318.028L94.072 314.988C92.84 315.132 92.072 315.66 92.072 316.508C92.072 317.324 92.888 317.916 94.072 318.028ZM99 311.87L90.824 311.87L90.824 309.998L92.616 309.998C91.08 309.47 90.456 308.158 90.584 306.446L92.424 306.446C92.376 307.15 92.392 307.694 92.504 308.158C92.84 309.406 93.88 309.95 95.448 309.95L99 309.95L99 311.87ZM99.24 302.24C99.24 304.384 98.12 305.68 96.616 305.84L96.616 303.856C97.304 303.728 97.848 303.168 97.848 302.208C97.848 301.376 97.448 300.864 96.808 300.864C96.232 300.864 95.944 301.264 95.72 302.176L95.48 303.072C95.032 304.752 94.36 305.584 93.112 305.584C91.624 305.584 90.6 304.24 90.6 302.4C90.6 300.4 91.672 299.36 92.888 299.184L92.888 301.024C92.328 301.2 91.992 301.696 91.992 302.432C91.992 303.184 92.392 303.712 92.952 303.712C93.448 303.712 93.688 303.376 93.896 302.608L94.136 301.776C94.584 300.096 95.208 298.976 96.632 298.976C98.2 298.976 99.24 300.32 99.24 302.24ZM102.12 291.445L90.824 291.445L90.824 289.541L91.864 289.541C91.112 289.157 90.584 288.533 90.584 287.557C90.584 285.877 92.232 284.645 94.92 284.645C97.608 284.645 99.24 285.877 99.24 287.557C99.24 288.517 98.696 289.141 97.944 289.541L102.12 289.541L102.12 291.445ZM94.92 289.557C96.552 289.557 97.72 288.933 97.72 288.021C97.72 287.093 96.632 286.597 94.92 286.597C93.224 286.597 92.12 287.093 92.12 288.021C92.12 288.933 93.304 289.557 94.92 289.557ZM99.24 280.935C99.24 283.047 97.448 284.391 94.92 284.391C92.36 284.391 90.584 282.887 90.584 280.967C90.584 278.967 92.36 277.639 95.464 277.623L95.464 282.455C96.84 282.407 97.736 281.767 97.736 280.871C97.736 280.231 97.352 279.959 96.904 279.783L96.904 277.847C98.232 278.199 99.24 279.319 99.24 280.935ZM94.072 282.439L94.072 279.399C92.84 279.543 92.072 280.071 92.072 280.919C92.072 281.735 92.888 282.327 94.072 282.439ZM99 276.281L90.824 276.281L90.824 274.409L92.616 274.409C91.08 273.881 90.456 272.569 90.584 270.857L92.424 270.857C92.376 271.561 92.392 272.105 92.504 272.569C92.84 273.817 93.88 274.361 95.448 274.361L99 274.361L99 276.281ZM99 268.059L92.344 268.059L92.344 270.187L90.824 270.187L90.824 268.059L90.184 268.059C88.36 268.059 87.576 266.747 87.576 264.843C87.576 264.411 87.608 263.947 87.688 263.595L89.192 263.595C89.144 263.963 89.112 264.299 89.112 264.587C89.112 265.643 89.464 266.123 90.36 266.123L90.824 266.123L90.824 263.467L92.344 263.467L92.344 266.123L99 266.123L99 268.059ZM99.24 259.71C99.24 261.742 97.448 263.214 94.92 263.214C92.392 263.214 90.584 261.742 90.584 259.71C90.584 257.678 92.392 256.206 94.92 256.206C97.448 256.206 99.24 257.678 99.24 259.71ZM94.92 261.246C96.696 261.246 97.704 260.686 97.704 259.71C97.704 258.734 96.696 258.174 94.92 258.174C93.128 258.174 92.136 258.734 92.136 259.71C92.136 260.686 93.128 261.246 94.92 261.246ZM99 254.928L90.824 254.928L90.824 253.056L92.616 253.056C91.08 252.528 90.456 251.216 90.584 249.504L92.424 249.504C92.376 250.208 92.392 250.752 92.504 251.216C92.84 252.464 93.88 253.008 95.448 253.008L99 253.008L99 254.928ZM99 248.834L90.824 248.834L90.824 247.33L91.352 247.33C90.872 247.106 90.584 246.626 90.584 246.066C90.584 245.506 90.936 245.138 91.352 244.962C90.872 244.642 90.584 244.178 90.584 243.57C90.584 242.61 91.336 242.034 92.568 242.034L99 242.034L99 243.682L92.712 243.682C92.312 243.682 91.992 243.794 91.992 244.13C91.992 244.45 92.264 244.658 92.744 244.658L96.824 244.658L96.824 246.226L92.712 246.226C92.28 246.226 91.992 246.338 91.992 246.674C91.992 246.994 92.264 247.202 92.76 247.202L99 247.202L99 248.834ZM99 241.46L97.528 241.46L97.528 239.14L92.312 239.14L92.312 241.364L90.824 241.364L90.824 237.252L97.528 237.252L97.528 235.252L99 235.252L99 241.46ZM89.752 239.396L87.576 239.396L87.576 237.028L89.752 237.028L89.752 239.396ZM99 234.294L90.824 234.294L90.824 232.438L91.864 232.438C91.128 232.07 90.584 231.302 90.584 230.326C90.584 228.918 91.592 228.054 93.416 228.054L99 228.054L99 229.974L93.496 229.974C92.632 229.974 92.152 230.262 92.152 230.934C92.152 231.686 92.776 232.39 94.088 232.39L99 232.39L99 234.294ZM102.36 224.137C102.36 226.009 101.304 226.985 100.024 227.161L100.024 225.241C100.52 225.129 100.888 224.793 100.888 224.105C100.888 223.193 100.2 222.713 98.888 222.713L97.56 222.713C98.28 223.033 98.808 223.593 98.808 224.601C98.808 226.201 97.4 227.497 94.712 227.497C92.024 227.497 90.6 226.201 90.6 224.601C90.6 223.593 91.128 223.001 91.848 222.681L90.824 222.681L90.824 220.825L98.808 220.825C100.792 220.825 102.36 221.849 102.36 224.137ZM94.696 225.561C96.344 225.561 97.32 225.081 97.32 224.153C97.32 223.257 96.248 222.681 94.696 222.681C93.128 222.681 92.072 223.257 92.072 224.153C92.072 225.065 93.08 225.561 94.696 225.561ZM99 213.005L87.8 213.005L87.8 211.117L93.928 211.117L90.824 208.573L90.824 206.285L94.104 209.133L99 206.205L99 208.301L95.544 210.349L96.456 211.117L99 211.117L99 213.005ZM99.24 202.639C99.24 204.751 97.448 206.095 94.92 206.095C92.36 206.095 90.584 204.591 90.584 202.671C90.584 200.671 92.36 199.343 95.464 199.327L95.464 204.159C96.84 204.111 97.736 203.471 97.736 202.575C97.736 201.935 97.352 201.663 96.904 201.487L96.904 199.551C98.232 199.903 99.24 201.023 99.24 202.639ZM94.072 204.143L94.072 201.103C92.84 201.247 92.072 201.775 92.072 202.623C92.072 203.439 92.888 204.031 94.072 204.143ZM102.312 197.634C102.312 197.89 102.296 198.178 102.232 198.466L100.648 198.466C100.696 198.242 100.712 198.05 100.712 197.858C100.712 197.074 100.248 196.594 99.4 196.594C99.032 196.594 98.632 196.706 98.184 196.85L90.824 199.234L90.824 197.202L94.936 196.082C95.688 195.874 96.248 195.746 97.048 195.554L97.048 195.522C96.28 195.362 95.704 195.218 94.936 195.01L90.824 193.906L90.824 191.986L99.336 194.562C100.264 194.834 100.952 195.074 101.432 195.474C101.992 195.922 102.312 196.626 102.312 197.634ZM99.224 182.23C99.224 183.638 98.344 184.886 96.76 184.886C94.904 184.886 94.44 183.174 94.264 181.91L94.168 181.382C94.024 180.39 93.768 179.99 93.08 179.99C92.424 179.99 91.976 180.406 91.976 181.222C91.976 182.038 92.376 182.534 92.936 182.662L92.936 184.566C91.624 184.31 90.584 183.206 90.584 181.206C90.584 179.126 91.576 178.166 93.16 178.166L97.032 178.166C97.704 178.166 98.456 178.038 99 177.91L99 179.798C98.728 179.846 98.328 179.894 97.992 179.926C98.568 180.246 99.224 180.982 99.224 182.23ZM96.664 183.014C97.352 183.014 97.752 182.454 97.752 181.75C97.752 180.694 96.888 180.006 95.72 180.006L94.776 180.006C95.08 180.214 95.304 180.678 95.448 181.51C95.608 182.47 95.912 183.014 96.664 183.014ZM99.24 174.104C99.24 176.072 97.624 177.48 94.936 177.48C92.296 177.48 90.6 176.008 90.6 174.04C90.6 172.312 91.864 171.336 93.304 171.08L93.304 172.92C92.712 173.048 92.168 173.384 92.168 174.024C92.168 174.888 93.08 175.48 94.936 175.48C96.776 175.48 97.672 174.904 97.672 174.056C97.672 173.4 97.128 173.064 96.536 172.92L96.536 171.064C97.976 171.336 99.24 172.312 99.24 174.104ZM99.08 165.498C99.08 167.082 98.408 168.266 96.664 168.266L92.392 168.266L92.392 170.298L90.824 170.298L90.824 168.266L88.424 168.266L88.424 166.41L90.824 166.41L90.824 164.138L92.392 164.138L92.392 166.41L96.296 166.41C97.144 166.41 97.544 166.042 97.544 165.162C97.544 164.858 97.512 164.49 97.416 164.058L98.872 164.058C98.936 164.282 99.08 164.858 99.08 165.498ZM99 163.165L97.528 163.165L97.528 160.845L92.312 160.845L92.312 163.069L90.824 163.069L90.824 158.957L97.528 158.957L97.528 156.957L99 156.957L99 163.165ZM89.752 161.101L87.576 161.101L87.576 158.733L89.752 158.733L89.752 161.101ZM99.24 152.943C99.24 154.975 97.448 156.447 94.92 156.447C92.392 156.447 90.584 154.975 90.584 152.943C90.584 150.911 92.392 149.439 94.92 149.439C97.448 149.439 99.24 150.911 99.24 152.943ZM94.92 154.479C96.696 154.479 97.704 153.919 97.704 152.943C97.704 151.967 96.696 151.407 94.92 151.407C93.128 151.407 92.136 151.967 92.136 152.943C92.136 153.919 93.128 154.479 94.92 154.479ZM99 148.881L90.824 148.881L90.824 147.025L91.864 147.025C91.128 146.657 90.584 145.889 90.584 144.913C90.584 143.505 91.592 142.641 93.416 142.641L99 142.641L99 144.561L93.496 144.561C92.632 144.561 92.152 144.849 92.152 145.521C92.152 146.273 92.776 146.977 94.088 146.977L99 146.977L99 148.881Z" fill="black"/>
<path d="M394.341 538V528.576H390.629V526.8H400.037V528.576H396.341V538H394.341ZM401.255 538V536.528H403.575V531.312H401.351V529.824H405.463V536.528H407.463V538H401.255ZM403.319 528.752V526.576H405.687V528.752H403.319ZM408.117 538V529.824H409.621V530.352C409.845 529.872 410.325 529.584 410.885 529.584C411.445 529.584 411.813 529.936 411.989 530.352C412.309 529.872 412.773 529.584 413.381 529.584C414.341 529.584 414.917 530.336 414.917 531.568V538H413.269V531.712C413.269 531.312 413.157 530.992 412.821 530.992C412.501 530.992 412.293 531.264 412.293 531.744V535.824H410.725V531.712C410.725 531.28 410.613 530.992 410.277 530.992C409.957 530.992 409.749 531.264 409.749 531.76V538H408.117ZM418.723 538.24C416.611 538.24 415.267 536.448 415.267 533.92C415.267 531.36 416.771 529.584 418.691 529.584C420.691 529.584 422.019 531.36 422.035 534.464H417.203C417.251 535.84 417.891 536.736 418.787 536.736C419.427 536.736 419.699 536.352 419.875 535.904H421.811C421.459 537.232 420.339 538.24 418.723 538.24ZM417.219 533.072H420.259C420.115 531.84 419.587 531.072 418.739 531.072C417.923 531.072 417.331 531.888 417.219 533.072Z" fill="black"/>
</g>
<defs>
<clipPath id="clip0_3210_21568">
<rect width="711" height="586" fill="white" transform="translate(0 0.575195)"/>
</clipPath>
</defs>
</svg>
