<svg width="710" height="392" viewBox="0 0 710 392" fill="none" xmlns="http://www.w3.org/2000/svg">
<g opacity="0.8">
<path d="M0.25 0.25H694C702.698 0.25 709.75 7.30152 709.75 16V46C709.75 54.6985 702.698 61.75 694 61.75H16C7.30151 61.75 0.25 54.6985 0.25 46V0.25Z" fill="#BDE3FF"/>
<path d="M324.824 37L323.368 25.8H325.352L326.328 34.552L327.688 27.8H330.008L331.288 34.36L332.184 25.8H334.152L332.712 37H330.248L328.792 29.784L327.304 37H324.824ZM337.255 37.224C335.847 37.224 334.599 36.344 334.599 34.76C334.599 32.904 336.311 32.44 337.575 32.264L338.103 32.168C339.095 32.024 339.495 31.768 339.495 31.08C339.495 30.424 339.079 29.976 338.263 29.976C337.447 29.976 336.951 30.376 336.823 30.936H334.919C335.175 29.624 336.279 28.584 338.279 28.584C340.359 28.584 341.319 29.576 341.319 31.16V35.032C341.319 35.704 341.447 36.456 341.575 37H339.687C339.639 36.728 339.591 36.328 339.559 35.992C339.239 36.568 338.503 37.224 337.255 37.224ZM336.471 34.664C336.471 35.352 337.031 35.752 337.735 35.752C338.791 35.752 339.479 34.888 339.479 33.72V32.776C339.271 33.08 338.807 33.304 337.975 33.448C337.015 33.608 336.471 33.912 336.471 34.664ZM342.369 37V35.528H344.689V30.312H342.465V28.824H346.577V35.528H348.577V37H342.369ZM344.433 27.752V25.576H346.801V27.752H344.433ZM354.556 37.08C352.972 37.08 351.788 36.408 351.788 34.664V30.392H349.756V28.824H351.788V26.424H353.644V28.824H355.916V30.392H353.644V34.296C353.644 35.144 354.012 35.544 354.892 35.544C355.196 35.544 355.564 35.512 355.996 35.416V36.872C355.772 36.936 355.196 37.08 354.556 37.08ZM357.158 37V35.528H359.318V27.272H357.158V25.8H361.238V35.528H363.398V37H357.158ZM364.577 37V35.528H366.897V30.312H364.673V28.824H368.785V35.528H370.785V37H364.577ZM366.641 27.752V25.576H369.009V27.752H366.641ZM375.259 37.24C373.115 37.24 371.819 36.12 371.659 34.616H373.643C373.771 35.304 374.331 35.848 375.291 35.848C376.123 35.848 376.635 35.448 376.635 34.808C376.635 34.232 376.235 33.944 375.323 33.72L374.427 33.48C372.747 33.032 371.915 32.36 371.915 31.112C371.915 29.624 373.259 28.6 375.099 28.6C377.099 28.6 378.139 29.672 378.315 30.888H376.475C376.299 30.328 375.803 29.992 375.067 29.992C374.315 29.992 373.787 30.392 373.787 30.952C373.787 31.448 374.123 31.688 374.891 31.896L375.723 32.136C377.403 32.584 378.523 33.208 378.523 34.632C378.523 36.2 377.179 37.24 375.259 37.24ZM384.166 37.08C382.582 37.08 381.398 36.408 381.398 34.664V30.392H379.366V28.824H381.398V26.424H383.254V28.824H385.526V30.392H383.254V34.296C383.254 35.144 383.622 35.544 384.502 35.544C384.806 35.544 385.174 35.512 385.606 35.416V36.872C385.382 36.936 384.806 37.08 384.166 37.08Z" fill="black"/>
<path d="M0.25 0.25H694C702.698 0.25 709.75 7.30152 709.75 16V46C709.75 54.6985 702.698 61.75 694 61.75H16C7.30151 61.75 0.25 54.6985 0.25 46V0.25Z" stroke="#DADADA" stroke-width="0.5"/>
</g>
<path d="M354.646 110.354C354.842 110.549 355.158 110.549 355.354 110.354L358.536 107.172C358.731 106.976 358.731 106.66 358.536 106.464C358.34 106.269 358.024 106.269 357.828 106.464L355 109.293L352.172 106.464C351.976 106.269 351.66 106.269 351.464 106.464C351.269 106.66 351.269 106.976 351.464 107.172L354.646 110.354ZM354.5 62L354.5 110L355.5 110L355.5 62L354.5 62Z" fill="#DADADA"/>
<g opacity="0.8">
<path d="M0.25 110.25H694C702.698 110.25 709.75 117.302 709.75 126V156C709.75 164.698 702.698 171.75 694 171.75H16C7.30151 171.75 0.25 164.698 0.25 156V110.25Z" fill="#BDE3FF"/>
<path d="M309.012 147L313.188 135.8H315.396L319.524 147H317.38L316.58 144.664H311.908L311.108 147H309.012ZM312.5 142.984H316.004L315.252 140.776C314.932 139.896 314.628 139.016 314.26 137.896H314.244C313.94 138.872 313.604 139.832 313.252 140.792L312.5 142.984ZM320.307 150.12V138.824H322.211V139.864C322.595 139.112 323.219 138.584 324.195 138.584C325.875 138.584 327.107 140.232 327.107 142.92C327.107 145.608 325.875 147.24 324.195 147.24C323.235 147.24 322.611 146.696 322.211 145.944V150.12H320.307ZM322.195 142.92C322.195 144.552 322.819 145.72 323.731 145.72C324.659 145.72 325.155 144.632 325.155 142.92C325.155 141.224 324.659 140.12 323.731 140.12C322.819 140.12 322.195 141.304 322.195 142.92ZM327.709 150.12V138.824H329.613V139.864C329.997 139.112 330.621 138.584 331.597 138.584C333.277 138.584 334.509 140.232 334.509 142.92C334.509 145.608 333.277 147.24 331.597 147.24C330.637 147.24 330.013 146.696 329.613 145.944V150.12H327.709ZM329.597 142.92C329.597 144.552 330.221 145.72 331.133 145.72C332.061 145.72 332.557 144.632 332.557 142.92C332.557 141.224 332.061 140.12 331.133 140.12C330.221 140.12 329.597 141.304 329.597 142.92ZM345.17 147.24C343.49 147.24 342.258 145.592 342.258 142.904C342.258 140.216 343.49 138.584 345.17 138.584C346.13 138.584 346.77 139.128 347.154 139.88V135.8H349.058V147H347.154V145.976C346.77 146.712 346.146 147.24 345.17 147.24ZM344.21 142.904C344.21 144.616 344.706 145.72 345.634 145.72C346.546 145.72 347.186 144.536 347.186 142.904C347.186 141.288 346.546 140.12 345.634 140.12C344.706 140.12 344.21 141.208 344.21 142.904ZM353.181 147.24C351.149 147.24 349.677 145.448 349.677 142.92C349.677 140.392 351.149 138.584 353.181 138.584C355.213 138.584 356.685 140.392 356.685 142.92C356.685 145.448 355.213 147.24 353.181 147.24ZM351.645 142.92C351.645 144.696 352.205 145.704 353.181 145.704C354.157 145.704 354.717 144.696 354.717 142.92C354.717 141.128 354.157 140.136 353.181 140.136C352.205 140.136 351.645 141.128 351.645 142.92ZM357.543 147L356.823 138.824H358.519L358.935 145.624L359.703 140.52H361.559L362.295 145.656L362.679 138.824H364.343L363.655 147H361.367L360.599 141.896L359.847 147H357.543ZM364.93 147V138.824H366.786V139.864C367.154 139.128 367.922 138.584 368.898 138.584C370.306 138.584 371.17 139.592 371.17 141.416V147H369.25V141.496C369.25 140.632 368.962 140.152 368.29 140.152C367.538 140.152 366.834 140.776 366.834 142.088V147H364.93ZM372.268 147V145.528H374.428V137.272H372.268V135.8H376.348V145.528H378.508V147H372.268ZM382.791 147.24C380.759 147.24 379.287 145.448 379.287 142.92C379.287 140.392 380.759 138.584 382.791 138.584C384.823 138.584 386.295 140.392 386.295 142.92C386.295 145.448 384.823 147.24 382.791 147.24ZM381.255 142.92C381.255 144.696 381.815 145.704 382.791 145.704C383.767 145.704 384.327 144.696 384.327 142.92C384.327 141.128 383.767 140.136 382.791 140.136C381.815 140.136 381.255 141.128 381.255 142.92ZM389.377 147.224C387.969 147.224 386.721 146.344 386.721 144.76C386.721 142.904 388.433 142.44 389.697 142.264L390.225 142.168C391.217 142.024 391.617 141.768 391.617 141.08C391.617 140.424 391.201 139.976 390.385 139.976C389.569 139.976 389.073 140.376 388.945 140.936H387.041C387.297 139.624 388.401 138.584 390.401 138.584C392.481 138.584 393.441 139.576 393.441 141.16V145.032C393.441 145.704 393.569 146.456 393.697 147H391.809C391.761 146.728 391.713 146.328 391.681 145.992C391.361 146.568 390.625 147.224 389.377 147.224ZM388.593 144.664C388.593 145.352 389.153 145.752 389.857 145.752C390.913 145.752 391.601 144.888 391.601 143.72V142.776C391.393 143.08 390.929 143.304 390.097 143.448C389.137 143.608 388.593 143.912 388.593 144.664ZM396.988 147.24C395.308 147.24 394.076 145.592 394.076 142.904C394.076 140.216 395.308 138.584 396.988 138.584C397.948 138.584 398.588 139.128 398.972 139.88V135.8H400.876V147H398.972V145.976C398.588 146.712 397.964 147.24 396.988 147.24ZM396.028 142.904C396.028 144.616 396.524 145.72 397.452 145.72C398.364 145.72 399.004 144.536 399.004 142.904C399.004 141.288 398.364 140.12 397.452 140.12C396.524 140.12 396.028 141.208 396.028 142.904Z" fill="black"/>
<path d="M0.25 110.25H694C702.698 110.25 709.75 117.302 709.75 126V156C709.75 164.698 702.698 171.75 694 171.75H16C7.30151 171.75 0.25 164.698 0.25 156V110.25Z" stroke="#DADADA" stroke-width="0.5"/>
</g>
<path d="M354.646 220.354C354.842 220.549 355.158 220.549 355.354 220.354L358.536 217.172C358.731 216.976 358.731 216.66 358.536 216.464C358.34 216.269 358.024 216.269 357.828 216.464L355 219.293L352.172 216.464C351.976 216.269 351.66 216.269 351.464 216.464C351.269 216.66 351.269 216.976 351.464 217.172L354.646 220.354ZM354.5 172L354.5 220L355.5 220L355.5 172L354.5 172Z" fill="#DADADA"/>
<g opacity="0.8">
<path d="M0.25 220.25H694C702.698 220.25 709.75 227.302 709.75 236V266C709.75 274.698 702.698 281.75 694 281.75H16C7.30151 281.75 0.25 274.698 0.25 266V220.25Z" fill="#BDE3FF"/>
<path d="M310.02 257V245.8H314.292C316.772 245.8 318.404 247.064 318.404 249.144C318.404 250.856 317.188 251.96 315.508 252.312L318.788 257H316.436L313.396 252.44H312.02V257H310.02ZM312.02 250.84H314.116C315.412 250.84 316.372 250.344 316.372 249.144C316.372 247.96 315.412 247.416 314.164 247.416H312.02V250.84ZM323.699 257.24C321.587 257.24 320.243 255.448 320.243 252.92C320.243 250.36 321.747 248.584 323.667 248.584C325.667 248.584 326.995 250.36 327.011 253.464H322.179C322.227 254.84 322.867 255.736 323.763 255.736C324.403 255.736 324.675 255.352 324.851 254.904H326.787C326.435 256.232 325.315 257.24 323.699 257.24ZM322.195 252.072H325.235C325.091 250.84 324.563 250.072 323.715 250.072C322.899 250.072 322.307 250.888 322.195 252.072ZM330.957 260.36C329.085 260.36 328.109 259.304 327.933 258.024H329.853C329.965 258.52 330.301 258.888 330.989 258.888C331.901 258.888 332.381 258.2 332.381 256.888V255.56C332.061 256.28 331.501 256.808 330.493 256.808C328.893 256.808 327.597 255.4 327.597 252.712C327.597 250.024 328.893 248.6 330.493 248.6C331.501 248.6 332.093 249.128 332.413 249.848V248.824H334.269V256.808C334.269 258.792 333.245 260.36 330.957 260.36ZM329.533 252.696C329.533 254.344 330.013 255.32 330.941 255.32C331.837 255.32 332.413 254.248 332.413 252.696C332.413 251.128 331.837 250.072 330.941 250.072C330.029 250.072 329.533 251.08 329.533 252.696ZM335.272 257V255.528H337.592V250.312H335.368V248.824H339.48V255.528H341.48V257H335.272ZM337.336 247.752V245.576H339.704V247.752H337.336ZM345.954 257.24C343.81 257.24 342.514 256.12 342.354 254.616H344.338C344.466 255.304 345.026 255.848 345.986 255.848C346.818 255.848 347.33 255.448 347.33 254.808C347.33 254.232 346.93 253.944 346.018 253.72L345.122 253.48C343.442 253.032 342.61 252.36 342.61 251.112C342.61 249.624 343.954 248.6 345.794 248.6C347.794 248.6 348.834 249.672 349.01 250.888H347.17C346.994 250.328 346.498 249.992 345.762 249.992C345.01 249.992 344.482 250.392 344.482 250.952C344.482 251.448 344.818 251.688 345.586 251.896L346.418 252.136C348.098 252.584 349.218 253.208 349.218 254.632C349.218 256.2 347.874 257.24 345.954 257.24ZM354.861 257.08C353.277 257.08 352.093 256.408 352.093 254.664V250.392H350.061V248.824H352.093V246.424H353.949V248.824H356.221V250.392H353.949V254.296C353.949 255.144 354.317 255.544 355.197 255.544C355.501 255.544 355.869 255.512 356.301 255.416V256.872C356.077 256.936 355.501 257.08 354.861 257.08ZM358.247 257V248.824H360.119V250.616C360.647 249.08 361.959 248.456 363.671 248.584V250.424C362.967 250.376 362.423 250.392 361.959 250.504C360.711 250.84 360.167 251.88 360.167 253.448V257H358.247ZM367.17 257.224C365.762 257.224 364.514 256.344 364.514 254.76C364.514 252.904 366.226 252.44 367.49 252.264L368.018 252.168C369.01 252.024 369.41 251.768 369.41 251.08C369.41 250.424 368.994 249.976 368.178 249.976C367.362 249.976 366.866 250.376 366.738 250.936H364.834C365.09 249.624 366.194 248.584 368.194 248.584C370.274 248.584 371.234 249.576 371.234 251.16V255.032C371.234 255.704 371.362 256.456 371.49 257H369.602C369.554 256.728 369.506 256.328 369.474 255.992C369.154 256.568 368.418 257.224 367.17 257.224ZM366.386 254.664C366.386 255.352 366.946 255.752 367.65 255.752C368.706 255.752 369.394 254.888 369.394 253.72V252.776C369.186 253.08 368.722 253.304 367.89 253.448C366.93 253.608 366.386 253.912 366.386 254.664ZM377.068 257.08C375.484 257.08 374.3 256.408 374.3 254.664V250.392H372.268V248.824H374.3V246.424H376.156V248.824H378.428V250.392H376.156V254.296C376.156 255.144 376.524 255.544 377.404 255.544C377.708 255.544 378.076 255.512 378.508 255.416V256.872C378.284 256.936 377.708 257.08 377.068 257.08ZM379.687 257V255.528H382.007V250.312H379.783V248.824H383.895V255.528H385.895V257H379.687ZM381.751 247.752V245.576H384.119V247.752H381.751ZM390.193 257.24C388.161 257.24 386.689 255.448 386.689 252.92C386.689 250.392 388.161 248.584 390.193 248.584C392.225 248.584 393.697 250.392 393.697 252.92C393.697 255.448 392.225 257.24 390.193 257.24ZM388.657 252.92C388.657 254.696 389.217 255.704 390.193 255.704C391.169 255.704 391.729 254.696 391.729 252.92C391.729 251.128 391.169 250.136 390.193 250.136C389.217 250.136 388.657 251.128 388.657 252.92ZM394.54 257V248.824H396.396V249.864C396.764 249.128 397.532 248.584 398.508 248.584C399.916 248.584 400.78 249.592 400.78 251.416V257H398.86V251.496C398.86 250.632 398.572 250.152 397.9 250.152C397.148 250.152 396.444 250.776 396.444 252.088V257H394.54Z" fill="black"/>
<path d="M0.25 220.25H694C702.698 220.25 709.75 227.302 709.75 236V266C709.75 274.698 702.698 281.75 694 281.75H16C7.30151 281.75 0.25 274.698 0.25 266V220.25Z" stroke="#DADADA" stroke-width="0.5"/>
</g>
<path d="M354.646 330.354C354.842 330.549 355.158 330.549 355.354 330.354L358.536 327.172C358.731 326.976 358.731 326.66 358.536 326.464C358.34 326.269 358.024 326.269 357.828 326.464L355 329.293L352.172 326.464C351.976 326.269 351.66 326.269 351.464 326.464C351.269 326.66 351.269 326.976 351.464 327.172L354.646 330.354ZM354.5 282L354.5 330L355.5 330L355.5 282L354.5 282Z" fill="#DADADA"/>
<g opacity="0.8">
<path d="M0.25 330.25H694C702.698 330.25 709.75 337.302 709.75 346V376C709.75 384.698 702.698 391.75 694 391.75H16C7.30151 391.75 0.25 384.698 0.25 376V330.25Z" fill="#BDE3FF"/>
<path d="M269.76 367.24C267.152 367.24 265.44 365.608 265.44 362.936V355.8H267.44V362.68C267.44 364.472 268.224 365.48 269.76 365.48C271.296 365.48 272.08 364.472 272.08 362.68V355.8H274.08V362.936C274.08 365.608 272.368 367.24 269.76 367.24ZM279.247 367.24C277.103 367.24 275.807 366.12 275.647 364.616H277.631C277.759 365.304 278.319 365.848 279.279 365.848C280.111 365.848 280.623 365.448 280.623 364.808C280.623 364.232 280.223 363.944 279.311 363.72L278.415 363.48C276.735 363.032 275.903 362.36 275.903 361.112C275.903 359.624 277.247 358.6 279.087 358.6C281.087 358.6 282.127 359.672 282.303 360.888H280.463C280.287 360.328 279.791 359.992 279.055 359.992C278.303 359.992 277.775 360.392 277.775 360.952C277.775 361.448 278.111 361.688 278.879 361.896L279.711 362.136C281.391 362.584 282.511 363.208 282.511 364.632C282.511 366.2 281.167 367.24 279.247 367.24ZM286.601 367.24C284.489 367.24 283.145 365.448 283.145 362.92C283.145 360.36 284.649 358.584 286.569 358.584C288.569 358.584 289.897 360.36 289.913 363.464H285.081C285.129 364.84 285.769 365.736 286.665 365.736C287.305 365.736 287.577 365.352 287.753 364.904H289.689C289.337 366.232 288.217 367.24 286.601 367.24ZM285.097 362.072H288.137C287.993 360.84 287.465 360.072 286.617 360.072C285.801 360.072 285.209 360.888 285.097 362.072ZM291.54 367V358.824H293.412V360.616C293.94 359.08 295.252 358.456 296.964 358.584V360.424C296.26 360.376 295.716 360.392 295.252 360.504C294.004 360.84 293.46 361.88 293.46 363.448V367H291.54ZM305.561 367V365.528H307.721V357.272H305.561V355.8H309.641V365.528H311.801V367H305.561ZM316.211 367.24C314.099 367.24 312.755 365.448 312.755 362.92C312.755 360.36 314.259 358.584 316.179 358.584C318.179 358.584 319.507 360.36 319.523 363.464H314.691C314.739 364.84 315.379 365.736 316.275 365.736C316.915 365.736 317.187 365.352 317.363 364.904H319.299C318.947 366.232 317.827 367.24 316.211 367.24ZM314.707 362.072H317.747C317.603 360.84 317.075 360.072 316.227 360.072C315.411 360.072 314.819 360.888 314.707 362.072ZM322.67 367.224C321.262 367.224 320.014 366.344 320.014 364.76C320.014 362.904 321.726 362.44 322.99 362.264L323.518 362.168C324.51 362.024 324.91 361.768 324.91 361.08C324.91 360.424 324.494 359.976 323.678 359.976C322.862 359.976 322.366 360.376 322.238 360.936H320.334C320.59 359.624 321.694 358.584 323.694 358.584C325.774 358.584 326.734 359.576 326.734 361.16V365.032C326.734 365.704 326.862 366.456 326.99 367H325.102C325.054 366.728 325.006 366.328 324.974 365.992C324.654 366.568 323.918 367.224 322.67 367.224ZM321.886 364.664C321.886 365.352 322.446 365.752 323.15 365.752C324.206 365.752 324.894 364.888 324.894 363.72V362.776C324.686 363.08 324.222 363.304 323.39 363.448C322.43 363.608 321.886 363.912 321.886 364.664ZM328.552 367V358.824H330.424V360.616C330.952 359.08 332.264 358.456 333.976 358.584V360.424C333.272 360.376 332.728 360.392 332.264 360.504C331.016 360.84 330.472 361.88 330.472 363.448V367H328.552ZM335.235 367V358.824H337.091V359.864C337.459 359.128 338.227 358.584 339.203 358.584C340.611 358.584 341.475 359.592 341.475 361.416V367H339.555V361.496C339.555 360.632 339.267 360.152 338.595 360.152C337.843 360.152 337.139 360.776 337.139 362.088V367H335.235ZM342.589 367V365.528H344.909V360.312H342.685V358.824H346.797V365.528H348.797V367H342.589ZM344.653 357.752V355.576H347.021V357.752H344.653ZM350.04 367V358.824H351.896V359.864C352.264 359.128 353.032 358.584 354.008 358.584C355.416 358.584 356.28 359.592 356.28 361.416V367H354.36V361.496C354.36 360.632 354.072 360.152 353.4 360.152C352.648 360.152 351.944 360.776 351.944 362.088V367H350.04ZM360.482 370.36C358.61 370.36 357.634 369.304 357.458 368.024H359.378C359.49 368.52 359.826 368.888 360.514 368.888C361.426 368.888 361.906 368.2 361.906 366.888V365.56C361.586 366.28 361.026 366.808 360.018 366.808C358.418 366.808 357.122 365.4 357.122 362.712C357.122 360.024 358.418 358.6 360.018 358.6C361.026 358.6 361.618 359.128 361.938 359.848V358.824H363.794V366.808C363.794 368.792 362.77 370.36 360.482 370.36ZM359.058 362.696C359.058 364.344 359.538 365.32 360.466 365.32C361.362 365.32 361.938 364.248 361.938 362.696C361.938 361.128 361.362 360.072 360.466 360.072C359.554 360.072 359.058 361.08 359.058 362.696ZM375.431 367.24C373.319 367.24 371.975 365.448 371.975 362.92C371.975 360.36 373.479 358.584 375.399 358.584C377.399 358.584 378.727 360.36 378.743 363.464H373.911C373.959 364.84 374.599 365.736 375.495 365.736C376.135 365.736 376.407 365.352 376.583 364.904H378.519C378.167 366.232 377.047 367.24 375.431 367.24ZM373.927 362.072H376.967C376.823 360.84 376.295 360.072 375.447 360.072C374.631 360.072 374.039 360.888 373.927 362.072ZM378.978 367L381.522 362.888L379.058 358.824H381.17L381.89 360.072L382.738 361.544H382.754C383.042 361.032 383.314 360.52 383.586 360.072L384.29 358.824H386.354L383.906 362.824L386.434 367H384.322L383.506 365.624L382.69 364.232H382.674L381.874 365.592L381.042 367H378.978ZM386.844 370.12V358.824H388.748V359.864C389.132 359.112 389.756 358.584 390.732 358.584C392.412 358.584 393.644 360.232 393.644 362.92C393.644 365.608 392.412 367.24 390.732 367.24C389.772 367.24 389.148 366.696 388.748 365.944V370.12H386.844ZM388.732 362.92C388.732 364.552 389.356 365.72 390.268 365.72C391.196 365.72 391.692 364.632 391.692 362.92C391.692 361.224 391.196 360.12 390.268 360.12C389.356 360.12 388.732 361.304 388.732 362.92ZM397.639 367.24C395.527 367.24 394.183 365.448 394.183 362.92C394.183 360.36 395.687 358.584 397.607 358.584C399.607 358.584 400.935 360.36 400.951 363.464H396.119C396.167 364.84 396.807 365.736 397.703 365.736C398.343 365.736 398.615 365.352 398.791 364.904H400.727C400.375 366.232 399.255 367.24 397.639 367.24ZM396.135 362.072H399.175C399.031 360.84 398.503 360.072 397.655 360.072C396.839 360.072 396.247 360.888 396.135 362.072ZM402.577 367V358.824H404.449V360.616C404.977 359.08 406.289 358.456 408.001 358.584V360.424C407.297 360.376 406.753 360.392 406.289 360.504C405.041 360.84 404.497 361.88 404.497 363.448V367H402.577ZM409.212 367V365.528H411.532V360.312H409.308V358.824H413.42V365.528H415.42V367H409.212ZM411.276 357.752V355.576H413.644V357.752H411.276ZM419.846 367.24C417.734 367.24 416.39 365.448 416.39 362.92C416.39 360.36 417.894 358.584 419.814 358.584C421.814 358.584 423.142 360.36 423.158 363.464H418.326C418.374 364.84 419.014 365.736 419.91 365.736C420.55 365.736 420.822 365.352 420.998 364.904H422.934C422.582 366.232 421.462 367.24 419.846 367.24ZM418.342 362.072H421.382C421.238 360.84 420.71 360.072 419.862 360.072C419.046 360.072 418.454 360.888 418.342 362.072ZM424.065 367V358.824H425.921V359.864C426.289 359.128 427.057 358.584 428.033 358.584C429.441 358.584 430.305 359.592 430.305 361.416V367H428.385V361.496C428.385 360.632 428.097 360.152 427.425 360.152C426.673 360.152 425.969 360.776 425.969 362.088V367H424.065ZM434.715 367.24C432.747 367.24 431.339 365.624 431.339 362.936C431.339 360.296 432.811 358.6 434.779 358.6C436.507 358.6 437.483 359.864 437.739 361.304H435.899C435.771 360.712 435.435 360.168 434.795 360.168C433.931 360.168 433.339 361.08 433.339 362.936C433.339 364.776 433.915 365.672 434.763 365.672C435.419 365.672 435.755 365.128 435.899 364.536H437.755C437.483 365.976 436.507 367.24 434.715 367.24ZM442.054 367.24C439.942 367.24 438.598 365.448 438.598 362.92C438.598 360.36 440.102 358.584 442.022 358.584C444.022 358.584 445.35 360.36 445.366 363.464H440.534C440.582 364.84 441.222 365.736 442.118 365.736C442.758 365.736 443.03 365.352 443.206 364.904H445.142C444.79 366.232 443.67 367.24 442.054 367.24ZM440.55 362.072H443.59C443.446 360.84 442.918 360.072 442.07 360.072C441.254 360.072 440.662 360.888 440.55 362.072Z" fill="black"/>
<path d="M0.25 330.25H694C702.698 330.25 709.75 337.302 709.75 346V376C709.75 384.698 702.698 391.75 694 391.75H16C7.30151 391.75 0.25 384.698 0.25 376V330.25Z" stroke="#DADADA" stroke-width="0.5"/>
</g>
</svg>
