<svg width="24" height="24" viewBox="0 0 24 24" fill="none" xmlns="http://www.w3.org/2000/svg">
<rect width="23.9972" height="24" rx="11.9986" fill="#E54646"/>
<path d="M11.7567 10.7453H11.1268L10.7578 12.4551H11.4777V13.1931H10.6048L10.2988 14.624H9.51587L9.82185 13.1931H8.83191L8.49894 14.75H7.71599L8.04896 13.1931H7.563V12.4551H8.21095L8.57993 10.7453H7.84198V10.0073H8.74192L9.0479 8.5764H9.83085L9.52487 10.0073H10.5058L10.8388 8.45041H11.6127L11.2798 10.0073H11.7567V10.7453ZM9.98384 12.4551L10.3438 10.7453H9.36288L8.9939 12.4551H9.98384ZM13.1919 13.8951H15.7207V14.75H12.2469C12.2739 13.3461 12.7599 12.5451 13.6508 11.7802L13.9298 11.5372C14.4878 11.0602 14.7757 10.7003 14.7757 10.0793C14.7757 9.46734 14.5148 9.08937 14.0918 9.08937C13.6148 9.08937 13.3358 9.61133 13.3358 10.2413V10.3493H12.3819V10.1693C12.3819 9.16136 13.0569 8.31542 14.1008 8.31542C15.0637 8.31542 15.6937 9.07137 15.6937 10.0973C15.6937 10.9702 15.1807 11.5732 14.5328 12.1132L14.1818 12.4192C13.6508 12.8601 13.2998 13.3191 13.1919 13.8951Z" fill="#E9FAE2"/>
</svg>
