<svg width="24" height="24" viewBox="0 0 24 24" fill="none" xmlns="http://www.w3.org/2000/svg">
<rect width="23.9972" height="24" rx="11.9986" fill="#65B457"/>
<path d="M11.7567 10.7453H11.1268L10.7578 12.4551H11.4777V13.1931H10.6048L10.2988 14.624H9.51587L9.82185 13.1931H8.83191L8.49894 14.75H7.71599L8.04896 13.1931H7.563V12.4551H8.21095L8.57993 10.7453H7.84198V10.0073H8.74192L9.0479 8.5764H9.83085L9.52487 10.0073H10.5058L10.8388 8.45041H11.6127L11.2798 10.0073H11.7567V10.7453ZM9.98384 12.4551L10.3438 10.7453H9.36288L8.9939 12.4551H9.98384ZM14.0108 14.885C13.0839 14.885 12.4089 14.228 12.3189 13.3371H13.2728C13.3358 13.7961 13.5968 14.111 13.9928 14.111C14.4788 14.111 14.7847 13.7241 14.7847 13.0941C14.7847 12.3562 14.3798 11.8882 13.6958 11.8882H13.4438V11.1322H13.6958C14.2898 11.1322 14.6498 10.7723 14.6498 10.0703C14.6498 9.46734 14.3978 9.09837 13.9838 9.09837C13.5878 9.09837 13.3268 9.42234 13.2728 9.93531H12.3459C12.4269 8.94538 13.1109 8.31542 14.0018 8.31542C14.9107 8.31542 15.5497 8.99937 15.5497 9.94431C15.5497 10.6733 15.0997 11.3122 14.4878 11.4922C15.2437 11.7082 15.6847 12.3022 15.6847 13.0941C15.6847 14.156 15.0007 14.885 14.0108 14.885Z" fill="#E9FAE2"/>
</svg>
