<svg width="24" height="24" viewBox="0 0 24 24" fill="none" xmlns="http://www.w3.org/2000/svg">
<rect width="23.9972" height="24" rx="11.9986" fill="#65B457"/>
<path d="M11.7567 10.7453H11.1268L10.7578 12.4551H11.4777V13.1931H10.6048L10.2988 14.624H9.51587L9.82185 13.1931H8.83191L8.49894 14.75H7.71599L8.04896 13.1931H7.563V12.4551H8.21095L8.57993 10.7453H7.84198V10.0073H8.74192L9.0479 8.5764H9.83085L9.52487 10.0073H10.5058L10.8388 8.45041H11.6127L11.2798 10.0073H11.7567V10.7453ZM9.98384 12.4551L10.3438 10.7453H9.36288L8.9939 12.4551H9.98384ZM14.3078 14.75V10.5743H12.3459V9.91731C13.5158 9.87232 14.1908 9.30535 14.4158 8.45041H15.2167V14.75H14.3078Z" fill="#E9FAE2"/>
</svg>
