<svg width="32" height="32" viewBox="0 0 32 32" fill="none" xmlns="http://www.w3.org/2000/svg">
<g opacity="0.8">
<rect width="32" height="32" rx="16" fill="#33B140"/>
<path d="M14.9451 14.4733H13.9185L13.3171 17.26H14.4905V18.4627H13.0678L12.5691 20.7947H11.2931L11.7918 18.4627H10.1785L9.63581 21H8.35981L8.90248 18.4627H8.11048V17.26H9.16648L9.76781 14.4733H8.56515V13.2707H10.0318L10.5305 10.9387H11.8065L11.3078 13.2707H12.9065L13.4491 10.7333H14.7105L14.1678 13.2707H14.9451V14.4733ZM12.0558 17.26L12.6425 14.4733H11.0438L10.4425 17.26H12.0558ZM19.1027 21V14.1947H15.9054V13.124C17.812 13.0507 18.912 12.1267 19.2787 10.7333H20.584V21H19.1027Z" fill="#E9FAE2"/>
</g>
</svg>
