<svg width="24" height="24" viewBox="0 0 24 24" fill="none" xmlns="http://www.w3.org/2000/svg">
<rect width="24" height="24" rx="12" fill="#3240DD"/>
<path d="M12.7891 14.7676V14.0176H9.86523C9.26758 14.0176 8.9043 13.6953 8.9043 13.1504C8.9043 12.8926 8.97461 12.6641 9.19141 12.2246C9.85938 10.959 10.4863 9.89258 11.5293 8.35156C12.0215 7.63672 12.3965 7.39062 13.0059 7.39062C13.7969 7.39062 14.2715 7.8125 14.2715 8.50977V12.7285H14.6641C15.0859 12.7285 15.3438 12.9863 15.3438 13.3848C15.3438 13.7773 15.0918 14.0176 14.6641 14.0176H14.2715V14.7676C14.2715 15.2656 13.9902 15.5703 13.5273 15.5703C13.0645 15.5703 12.7891 15.2656 12.7891 14.7676ZM10.3516 12.7285H12.7891V8.75H12.707C12.0039 9.81641 10.8672 11.7559 10.3516 12.6875V12.7285Z" fill="white"/>
</svg>
