<svg width="24" height="24" viewBox="0 0 24 24" fill="none" xmlns="http://www.w3.org/2000/svg">
<rect width="24" height="24" rx="12" fill="#3240DD"/>
<path d="M9.3125 13.8125C9.3125 13.4434 9.57617 13.1738 9.93359 13.1738C10.1914 13.1738 10.3848 13.2969 10.6016 13.6133C10.9414 14.1523 11.4629 14.4395 12.1191 14.4395C12.998 14.4395 13.5664 13.9648 13.5664 13.2383C13.5664 12.5117 12.9863 12.0195 12.125 12.0195H11.5508C11.1992 12.0195 10.9414 11.7559 10.9414 11.3926C10.9414 11.041 11.1934 10.7773 11.5508 10.7773H12.0957C12.8164 10.7773 13.3438 10.3086 13.3438 9.66406C13.3438 9.01953 12.8281 8.58008 12.084 8.58008C11.5039 8.58008 11.0527 8.84961 10.7422 9.37695C10.5664 9.66992 10.3613 9.79297 10.0859 9.79297C9.71094 9.79297 9.44141 9.5293 9.44141 9.14844C9.44141 8.21094 10.584 7.34961 12.1133 7.34961C13.7305 7.34961 14.8672 8.22266 14.8672 9.4707C14.8672 10.3379 14.2168 11.1348 13.4082 11.252V11.3516C14.3809 11.4453 15.1133 12.2773 15.1133 13.291C15.1133 14.6914 13.8711 15.6699 12.1074 15.6699C10.5254 15.6699 9.3125 14.7793 9.3125 13.8125Z" fill="white"/>
</svg>
