<svg width="24" height="24" viewBox="0 0 24 24" fill="none" xmlns="http://www.w3.org/2000/svg">
<rect width="24" height="24" rx="12" fill="#3240DD"/>
<path d="M9.71484 14.791C9.71484 14.4922 9.87305 14.2402 10.3652 13.7363L12.5508 11.3809C13.1953 10.6953 13.4531 10.25 13.4531 9.75781C13.4531 9.08984 12.9668 8.63867 12.2461 8.63867C11.6484 8.63867 11.209 8.9668 10.9805 9.58203C10.793 9.94531 10.5938 10.1035 10.2891 10.1035C9.89648 10.1035 9.62695 9.82227 9.62695 9.42969C9.62695 8.375 10.752 7.34961 12.334 7.34961C13.8809 7.34961 14.9941 8.30469 14.9941 9.62305C14.9941 10.4258 14.6309 11.0879 13.6289 12.1426L11.7656 14.1348V14.2109H14.5137C14.9707 14.2109 15.252 14.457 15.252 14.8613C15.252 15.2598 14.9766 15.5 14.5137 15.5H10.5645C10.0488 15.5 9.71484 15.2188 9.71484 14.791Z" fill="white"/>
</svg>
